<svg xmlns="http://www.w3.org/2000/svg" viewBox="0 0 731.18 689.83"><defs><style>.cls-1{fill:#543d33;}.cls-2{font-size:100px;fill:#fff;font-family:Riposte-Heavy, Riposte;font-weight:800;}.cls-3{letter-spacing:-0.05em;}.cls-4{letter-spacing:-0.06em;}.cls-5{letter-spacing:-0.04em;}.cls-6{letter-spacing:-0.1em;}.cls-7{letter-spacing:-0.06em;}.cls-8{letter-spacing:-0.05em;}.cls-9{letter-spacing:0em;}.cls-10{font-size:52px;}.cls-11{letter-spacing:-0.04em;}.cls-12{letter-spacing:-0.03em;}.cls-13{letter-spacing:-0.01em;}.cls-14{font-size:40px;font-family:Riposte-Regular, Riposte;font-weight:400;}.cls-15{letter-spacing:-0.04em;}.cls-16{letter-spacing:-0.08em;}.cls-17{letter-spacing:-0.04em;}.cls-18{letter-spacing:-0.03em;}.cls-19{letter-spacing:-0.02em;}.cls-20{letter-spacing:-0.03em;}.cls-21{letter-spacing:-0.01em;}.cls-22{letter-spacing:-0.07em;}.cls-23{letter-spacing:-0.08em;}.cls-24{letter-spacing:0em;}</style></defs><g id="Layer_2" data-name="Layer 2"><g id="Layer_2-2" data-name="Layer 2"><path class="cls-1" d="M727.21,310.69c32,193.45-134.76,339.7-328.21,371.72S37.16,623.64,5.15,430.19,93.34,36.46,286.8,4.45,695.2,117.23,727.21,310.69Z" transform="translate(0 0)"/><text class="cls-2" transform="translate(65.89 293.83)"><tspan class="cls-3">Vi</tspan><tspan class="cls-4" x="93.3" y="0">a</tspan><tspan class="cls-3" x="153.1" y="0">n</tspan><tspan class="cls-5" x="213.6" y="0">c</tspan><tspan x="273.4" y="0">a </tspan><tspan class="cls-6" x="359.2" y="0">V</tspan><tspan class="cls-7" x="419.2" y="0">al</tspan><tspan class="cls-8" x="506.6" y="0">i</tspan><tspan class="cls-9" x="534.9" y="0">s</tspan><tspan class="cls-10"><tspan x="11.96" y="76">O</tspan><tspan class="cls-11" x="51.32" y="76">w</tspan><tspan class="cls-3" x="91.41" y="76">n</tspan><tspan class="cls-11" x="122.87" y="76">e</tspan><tspan x="152.72" y="76">r &amp; </tspan><tspan class="cls-3" x="242.79" y="76">H</tspan><tspan class="cls-11" x="279.24" y="76">e</tspan><tspan class="cls-4" x="309.09" y="76">a</tspan><tspan class="cls-12" x="340.18" y="76">l</tspan><tspan class="cls-3" x="356.09" y="76">t</tspan><tspan x="376.89" y="76">h</tspan><tspan class="cls-13" x="410.9" y="76" xml:space="preserve"> C</tspan><tspan class="cls-3" x="458.12" y="76">oac</tspan><tspan x="552.13" y="76">h</tspan></tspan><tspan class="cls-14"><tspan x="131.89" y="176">+1 (</tspan><tspan class="cls-15" x="195.77" y="176">30</tspan><tspan x="246.97" y="176">1) </tspan><tspan class="cls-3" x="290.13" y="176">9</tspan><tspan x="314.57" y="176">19 </tspan><tspan class="cls-16" x="367.57" y="176">8</tspan><tspan class="cls-3" x="390.69" y="176">9</tspan><tspan class="cls-17" x="415.13" y="176">8</tspan><tspan x="439.85" y="176">5</tspan><tspan class="cls-18" x="84.13" y="226">v</tspan><tspan class="cls-19" x="104.45" y="226">i</tspan><tspan class="cls-15" x="114.33" y="226">a</tspan><tspan class="cls-20" x="135.45" y="226">n</tspan><tspan class="cls-21" x="158.85" y="226">c</tspan><tspan class="cls-22" x="181.57" y="226">a</tspan><tspan class="cls-17" x="201.49" y="226">val</tspan><tspan class="cls-18" x="251.97" y="226">i</tspan><tspan x="261.45" y="226">s@</tspan><tspan class="cls-17" x="322.41" y="226">g</tspan><tspan class="cls-18" x="343.53" y="226">m</tspan><tspan class="cls-15" x="380.41" y="226">ai</tspan><tspan class="cls-23" x="410.61" y="226">l</tspan><tspan class="cls-24" x="418.45" y="226">.</tspan><tspan class="cls-21" x="430.69" y="226">c</tspan><tspan class="cls-15" x="453.41" y="226">o</tspan><tspan class="cls-24" x="475.89" y="226">m</tspan></tspan></text></g></g></svg>